<mxfile host="app.diagrams.net" modified="2021-05-31T08:22:23.809Z" agent="5.0 (Windows)" etag="8zBT5bXge8C0WwErBZ7w" version="14.7.3" type="github" pages="3">
  <diagram id="JdfJnwlV55ol5751ifI3" name="Page-1">
    <mxGraphModel dx="1038" dy="519" grid="1" gridSize="10" guides="1" tooltips="1" connect="1" arrows="1" fold="1" page="1" pageScale="1" pageWidth="850" pageHeight="1100" math="0" shadow="0">
      <root>
        <mxCell id="0" />
        <mxCell id="1" parent="0" />
        <mxCell id="pTXZTHl9L7OJU9qLczYP-1" value="&lt;div&gt;Client&lt;/div&gt;" style="rounded=1;whiteSpace=wrap;html=1;" vertex="1" parent="1">
          <mxGeometry x="180" y="120" width="120" height="60" as="geometry" />
        </mxCell>
        <mxCell id="pTXZTHl9L7OJU9qLczYP-3" value="" style="endArrow=open;endFill=1;endSize=12;html=1;exitX=0.5;exitY=1;exitDx=0;exitDy=0;entryX=0.5;entryY=0;entryDx=0;entryDy=0;" edge="1" parent="1" source="pTXZTHl9L7OJU9qLczYP-1" target="pTXZTHl9L7OJU9qLczYP-8">
          <mxGeometry width="160" relative="1" as="geometry">
            <mxPoint x="250" y="200" as="sourcePoint" />
            <mxPoint x="410" y="200" as="targetPoint" />
          </mxGeometry>
        </mxCell>
        <mxCell id="pTXZTHl9L7OJU9qLczYP-8" value="&lt;p style=&quot;margin: 0px ; margin-top: 4px ; text-align: center&quot;&gt;Abstraction&lt;/p&gt;&lt;hr size=&quot;1&quot;&gt;&lt;p style=&quot;margin: 0px ; margin-left: 4px&quot;&gt;+ i : implementation&lt;br&gt;&lt;/p&gt;&lt;hr size=&quot;1&quot;&gt;&lt;p style=&quot;margin: 0px ; margin-left: 4px&quot;&gt;+ feature1()&lt;/p&gt;&lt;p style=&quot;margin: 0px ; margin-left: 4px&quot;&gt;+ feature2()&lt;/p&gt;" style="verticalAlign=top;align=left;overflow=fill;fontSize=12;fontFamily=Helvetica;html=1;" vertex="1" parent="1">
          <mxGeometry x="160" y="270" width="160" height="90" as="geometry" />
        </mxCell>
        <mxCell id="pTXZTHl9L7OJU9qLczYP-10" value="&lt;p style=&quot;margin: 4px 0px 0px ; text-align: center ; text-decoration: underline ; font-size: 16px&quot;&gt;&lt;font size=&quot;1&quot;&gt;&lt;b&gt;&lt;span style=&quot;color: rgb(51 , 51 , 51) ; font-family: &amp;#34;open sans&amp;#34; , &amp;#34;clear sans&amp;#34; , &amp;#34;helvetica neue&amp;#34; , &amp;#34;helvetica&amp;#34; , &amp;#34;arial&amp;#34; , sans-serif ; font-size: 12px ; font-style: normal ; letter-spacing: normal ; text-align: left ; text-indent: 0px ; text-transform: none ; word-spacing: 0px ; background-color: rgb(255 , 255 , 255) ; display: inline ; float: none&quot;&gt;&amp;lt;&amp;lt;Interface&amp;gt;&amp;gt;&lt;br&gt;Implementation&lt;/span&gt;&lt;/b&gt;&lt;/font&gt;&lt;/p&gt;&lt;hr&gt;&lt;p style=&quot;margin: 0px ; margin-left: 8px&quot;&gt;+ method1()&lt;br&gt;+ method2()&lt;/p&gt;&lt;p style=&quot;margin: 0px ; margin-left: 8px&quot;&gt;+ method3()&lt;br&gt;&lt;/p&gt;" style="verticalAlign=top;align=left;overflow=fill;fontSize=12;fontFamily=Helvetica;html=1;" vertex="1" parent="1">
          <mxGeometry x="470" y="260" width="160" height="110" as="geometry" />
        </mxCell>
        <mxCell id="pTXZTHl9L7OJU9qLczYP-11" value="Concrete Implementations" style="swimlane;fontStyle=1;align=center;verticalAlign=top;childLayout=stackLayout;horizontal=1;startSize=26;horizontalStack=0;resizeParent=1;resizeParentMax=0;resizeLast=0;collapsible=1;marginBottom=0;" vertex="1" parent="1">
          <mxGeometry x="470" y="430" width="160" height="36" as="geometry" />
        </mxCell>
        <mxCell id="pTXZTHl9L7OJU9qLczYP-13" value="" style="line;strokeWidth=1;fillColor=none;align=left;verticalAlign=middle;spacingTop=-1;spacingLeft=3;spacingRight=3;rotatable=0;labelPosition=right;points=[];portConstraint=eastwest;" vertex="1" parent="pTXZTHl9L7OJU9qLczYP-11">
          <mxGeometry y="26" width="160" height="10" as="geometry" />
        </mxCell>
        <mxCell id="pTXZTHl9L7OJU9qLczYP-15" value="Refined Abstractions" style="swimlane;fontStyle=1;align=center;verticalAlign=top;childLayout=stackLayout;horizontal=1;startSize=26;horizontalStack=0;resizeParent=1;resizeParentMax=0;resizeLast=0;collapsible=1;marginBottom=0;" vertex="1" parent="1">
          <mxGeometry x="160" y="430" width="160" height="86" as="geometry" />
        </mxCell>
        <mxCell id="pTXZTHl9L7OJU9qLczYP-16" value="..." style="text;strokeColor=none;fillColor=none;align=left;verticalAlign=top;spacingLeft=4;spacingRight=4;overflow=hidden;rotatable=0;points=[[0,0.5],[1,0.5]];portConstraint=eastwest;" vertex="1" parent="pTXZTHl9L7OJU9qLczYP-15">
          <mxGeometry y="26" width="160" height="26" as="geometry" />
        </mxCell>
        <mxCell id="pTXZTHl9L7OJU9qLczYP-17" value="" style="line;strokeWidth=1;fillColor=none;align=left;verticalAlign=middle;spacingTop=-1;spacingLeft=3;spacingRight=3;rotatable=0;labelPosition=right;points=[];portConstraint=eastwest;" vertex="1" parent="pTXZTHl9L7OJU9qLczYP-15">
          <mxGeometry y="52" width="160" height="8" as="geometry" />
        </mxCell>
        <mxCell id="pTXZTHl9L7OJU9qLczYP-18" value="+ featureN()" style="text;strokeColor=none;fillColor=none;align=left;verticalAlign=top;spacingLeft=4;spacingRight=4;overflow=hidden;rotatable=0;points=[[0,0.5],[1,0.5]];portConstraint=eastwest;" vertex="1" parent="pTXZTHl9L7OJU9qLczYP-15">
          <mxGeometry y="60" width="160" height="26" as="geometry" />
        </mxCell>
        <mxCell id="pTXZTHl9L7OJU9qLczYP-19" value="1" style="endArrow=open;html=1;endSize=12;startArrow=diamondThin;startSize=14;startFill=0;edgeStyle=orthogonalEdgeStyle;align=left;verticalAlign=bottom;entryX=0;entryY=0.5;entryDx=0;entryDy=0;exitX=1;exitY=0.5;exitDx=0;exitDy=0;" edge="1" parent="1" source="pTXZTHl9L7OJU9qLczYP-8" target="pTXZTHl9L7OJU9qLczYP-10">
          <mxGeometry x="-1" y="3" relative="1" as="geometry">
            <mxPoint x="310" y="400" as="sourcePoint" />
            <mxPoint x="470" y="400" as="targetPoint" />
          </mxGeometry>
        </mxCell>
        <mxCell id="pTXZTHl9L7OJU9qLczYP-20" value="&lt;div&gt;has a&lt;/div&gt;&lt;div&gt;&lt;br&gt;&lt;/div&gt;" style="edgeLabel;html=1;align=center;verticalAlign=middle;resizable=0;points=[];" vertex="1" connectable="0" parent="pTXZTHl9L7OJU9qLczYP-19">
          <mxGeometry x="-0.3733" y="1" relative="1" as="geometry">
            <mxPoint x="13" y="-14" as="offset" />
          </mxGeometry>
        </mxCell>
        <mxCell id="pTXZTHl9L7OJU9qLczYP-21" value="Extends" style="endArrow=block;endSize=16;endFill=0;html=1;entryX=0.5;entryY=1;entryDx=0;entryDy=0;exitX=0.5;exitY=0;exitDx=0;exitDy=0;" edge="1" parent="1" source="pTXZTHl9L7OJU9qLczYP-15" target="pTXZTHl9L7OJU9qLczYP-8">
          <mxGeometry width="160" relative="1" as="geometry">
            <mxPoint x="160" y="530" as="sourcePoint" />
            <mxPoint x="320" y="530" as="targetPoint" />
          </mxGeometry>
        </mxCell>
        <mxCell id="pTXZTHl9L7OJU9qLczYP-22" value="Extends" style="endArrow=block;endSize=16;endFill=0;html=1;entryX=0.5;entryY=1;entryDx=0;entryDy=0;exitX=0.5;exitY=0;exitDx=0;exitDy=0;" edge="1" parent="1" source="pTXZTHl9L7OJU9qLczYP-11" target="pTXZTHl9L7OJU9qLczYP-10">
          <mxGeometry width="160" relative="1" as="geometry">
            <mxPoint x="530" y="560" as="sourcePoint" />
            <mxPoint x="530" y="490" as="targetPoint" />
          </mxGeometry>
        </mxCell>
      </root>
    </mxGraphModel>
  </diagram>
  <diagram id="-C_UMLi_tfCktwR7ICBW" name="Page-2">
    <mxGraphModel dx="1038" dy="519" grid="1" gridSize="10" guides="1" tooltips="1" connect="1" arrows="1" fold="1" page="1" pageScale="1" pageWidth="850" pageHeight="1100" math="0" shadow="0">
      <root>
        <mxCell id="UeALF8NDWmOJ1mfLhY5y-0" />
        <mxCell id="UeALF8NDWmOJ1mfLhY5y-1" parent="UeALF8NDWmOJ1mfLhY5y-0" />
        <mxCell id="UeALF8NDWmOJ1mfLhY5y-2" value="vehicle" style="html=1;" vertex="1" parent="UeALF8NDWmOJ1mfLhY5y-1">
          <mxGeometry x="90" y="120" width="110" height="50" as="geometry" />
        </mxCell>
        <mxCell id="UeALF8NDWmOJ1mfLhY5y-3" value="" style="rounded=0;whiteSpace=wrap;html=1;fillColor=#f8cecc;strokeColor=#b85450;" vertex="1" parent="UeALF8NDWmOJ1mfLhY5y-1">
          <mxGeometry x="310" y="102.5" width="120" height="60" as="geometry" />
        </mxCell>
        <mxCell id="UeALF8NDWmOJ1mfLhY5y-4" value="" style="rounded=0;whiteSpace=wrap;html=1;fillColor=#dae8fc;strokeColor=#6c8ebf;" vertex="1" parent="UeALF8NDWmOJ1mfLhY5y-1">
          <mxGeometry x="340" y="127.5" width="120" height="60" as="geometry" />
        </mxCell>
        <mxCell id="UeALF8NDWmOJ1mfLhY5y-5" value="" style="shape=image;html=1;verticalAlign=top;verticalLabelPosition=bottom;labelBackgroundColor=#ffffff;imageAspect=0;aspect=fixed;image=https://cdn4.iconfinder.com/data/icons/wirecons-free-vector-icons/32/add-128.png" vertex="1" parent="UeALF8NDWmOJ1mfLhY5y-1">
          <mxGeometry x="210" y="102.5" width="77" height="77" as="geometry" />
        </mxCell>
        <mxCell id="UeALF8NDWmOJ1mfLhY5y-6" value="" style="shape=image;html=1;verticalAlign=top;verticalLabelPosition=bottom;labelBackgroundColor=#ffffff;imageAspect=0;aspect=fixed;image=https://cdn4.iconfinder.com/data/icons/wirecons-free-vector-icons/32/add-128.png" vertex="1" parent="UeALF8NDWmOJ1mfLhY5y-1">
          <mxGeometry x="490" y="106.5" width="77" height="77" as="geometry" />
        </mxCell>
        <mxCell id="UeALF8NDWmOJ1mfLhY5y-8" value="" style="shape=mxgraph.signs.sports.dirt_bike;html=1;pointerEvents=1;fillColor=#000000;strokeColor=none;verticalLabelPosition=bottom;verticalAlign=top;align=center;" vertex="1" parent="UeALF8NDWmOJ1mfLhY5y-1">
          <mxGeometry x="610" y="66" width="70" height="61.5" as="geometry" />
        </mxCell>
        <mxCell id="UeALF8NDWmOJ1mfLhY5y-10" value="" style="html=1;shadow=0;dashed=0;align=center;verticalAlign=middle;shape=mxgraph.arrows2.arrow;dy=0.6;dx=40;direction=south;notch=0;fillColor=#d5e8d4;strokeColor=#82b366;" vertex="1" parent="UeALF8NDWmOJ1mfLhY5y-1">
          <mxGeometry x="370" y="230" width="70" height="100" as="geometry" />
        </mxCell>
        <mxCell id="UeALF8NDWmOJ1mfLhY5y-11" value="vehicle" style="html=1;" vertex="1" parent="UeALF8NDWmOJ1mfLhY5y-1">
          <mxGeometry x="350" y="350" width="110" height="50" as="geometry" />
        </mxCell>
        <mxCell id="UeALF8NDWmOJ1mfLhY5y-12" value="RedMotorBike" style="html=1;" vertex="1" parent="UeALF8NDWmOJ1mfLhY5y-1">
          <mxGeometry x="70" y="450" width="110" height="50" as="geometry" />
        </mxCell>
        <mxCell id="UeALF8NDWmOJ1mfLhY5y-13" value="BlueMotorBike" style="html=1;" vertex="1" parent="UeALF8NDWmOJ1mfLhY5y-1">
          <mxGeometry x="270" y="450" width="110" height="50" as="geometry" />
        </mxCell>
        <mxCell id="UeALF8NDWmOJ1mfLhY5y-14" value="BlueBicycleBike" style="html=1;" vertex="1" parent="UeALF8NDWmOJ1mfLhY5y-1">
          <mxGeometry x="440" y="440" width="110" height="50" as="geometry" />
        </mxCell>
        <mxCell id="UeALF8NDWmOJ1mfLhY5y-15" value="RedBicycleBike" style="html=1;" vertex="1" parent="UeALF8NDWmOJ1mfLhY5y-1">
          <mxGeometry x="590" y="440" width="130" height="50" as="geometry" />
        </mxCell>
        <mxCell id="UeALF8NDWmOJ1mfLhY5y-16" value="Extends" style="endArrow=block;endSize=16;endFill=0;html=1;entryX=0;entryY=0.5;entryDx=0;entryDy=0;exitX=0.5;exitY=0;exitDx=0;exitDy=0;" edge="1" parent="UeALF8NDWmOJ1mfLhY5y-1" source="UeALF8NDWmOJ1mfLhY5y-12" target="UeALF8NDWmOJ1mfLhY5y-11">
          <mxGeometry width="160" relative="1" as="geometry">
            <mxPoint x="70" y="430" as="sourcePoint" />
            <mxPoint x="230" y="430" as="targetPoint" />
          </mxGeometry>
        </mxCell>
        <mxCell id="UeALF8NDWmOJ1mfLhY5y-17" value="Extends" style="endArrow=block;endSize=16;endFill=0;html=1;entryX=0.5;entryY=1;entryDx=0;entryDy=0;exitX=0.5;exitY=0;exitDx=0;exitDy=0;" edge="1" parent="UeALF8NDWmOJ1mfLhY5y-1" source="UeALF8NDWmOJ1mfLhY5y-13" target="UeALF8NDWmOJ1mfLhY5y-11">
          <mxGeometry width="160" relative="1" as="geometry">
            <mxPoint x="205" y="450" as="sourcePoint" />
            <mxPoint x="415" y="410" as="targetPoint" />
          </mxGeometry>
        </mxCell>
        <mxCell id="UeALF8NDWmOJ1mfLhY5y-18" value="Extends" style="endArrow=block;endSize=16;endFill=0;html=1;entryX=0.75;entryY=1;entryDx=0;entryDy=0;exitX=0.5;exitY=0;exitDx=0;exitDy=0;" edge="1" parent="UeALF8NDWmOJ1mfLhY5y-1" source="UeALF8NDWmOJ1mfLhY5y-14" target="UeALF8NDWmOJ1mfLhY5y-11">
          <mxGeometry width="160" relative="1" as="geometry">
            <mxPoint x="215" y="460" as="sourcePoint" />
            <mxPoint x="425" y="420" as="targetPoint" />
          </mxGeometry>
        </mxCell>
        <mxCell id="UeALF8NDWmOJ1mfLhY5y-19" value="Extends" style="endArrow=block;endSize=16;endFill=0;html=1;entryX=1;entryY=0.5;entryDx=0;entryDy=0;exitX=0.5;exitY=0;exitDx=0;exitDy=0;" edge="1" parent="UeALF8NDWmOJ1mfLhY5y-1" source="UeALF8NDWmOJ1mfLhY5y-15" target="UeALF8NDWmOJ1mfLhY5y-11">
          <mxGeometry width="160" relative="1" as="geometry">
            <mxPoint x="225" y="470" as="sourcePoint" />
            <mxPoint x="435" y="430" as="targetPoint" />
          </mxGeometry>
        </mxCell>
        <mxCell id="UeALF8NDWmOJ1mfLhY5y-20" value="" style="shape=mxgraph.signs.sports.dirt_bike;html=1;pointerEvents=1;fillColor=#f8cecc;strokeColor=#b85450;verticalLabelPosition=bottom;verticalAlign=top;align=center;" vertex="1" parent="UeALF8NDWmOJ1mfLhY5y-1">
          <mxGeometry x="90" y="519" width="70" height="61.5" as="geometry" />
        </mxCell>
        <mxCell id="UeALF8NDWmOJ1mfLhY5y-21" value="" style="shape=mxgraph.signs.sports.dirt_bike;html=1;pointerEvents=1;fillColor=#dae8fc;strokeColor=#6c8ebf;verticalLabelPosition=bottom;verticalAlign=top;align=center;" vertex="1" parent="UeALF8NDWmOJ1mfLhY5y-1">
          <mxGeometry x="290" y="519" width="70" height="61.5" as="geometry" />
        </mxCell>
        <mxCell id="UeALF8NDWmOJ1mfLhY5y-34" value="" style="shape=image;imageAspect=0;aspect=fixed;verticalLabelPosition=bottom;verticalAlign=top;image=data:image/png,iVBORw0KGgoAAAANSUhEUgAAAGAAAABgCAYAAADimHc4AAAABmJLR0QA/wD/AP+gvaeTAAAGq0lEQVR4nO2dy29VRRzHP62tEAtYIVFhoQgJYLcufPAoYpoYRcBEebhSA7hSEuoDN0BAFj5i0AXySFwQ/QMMMWBEoqgV0YWJiqjQAkkp9R0REE17XMwtvZ7Ob87MuXPO6T2dTzKb25n5fWfmzOs3c04hEAgEAoFAIBAIBAIBCyKL8BfwHbALWFiMzPJi0wDx8D5wSxFiy0iaBoiAn4E7C9BbOtI2QAT8AszMX3K5qKUBIuBQ/pLLRa0NEDFKJubGogV4pqEqTAM6gb+FuCvzElVGpKdaR6cQ91j2MsuLSwPcKMT9M3uZyZRtCNIhlVFqsFwZCw3wiPB7b64qSobNEDSV4UlYF/eNvMSWER/L0AW5qy4RtVb+gfwll4taXREz8pdcLtJW/k/AHQXoLR1pKv89YHoRYsuITYWfB75FrXZG7YTbVLQAzzQULcCVsbARG9WEBiiY0AAFExqgYEIDBAKBQCAPOoA9wHHUtUFXV0IgJbOAj6jdhRxIwQLgN/wcoAQcmYW/ypfu9gQMHMJP5UeouSPgQAf+Kn8QaMtXfv2zB31lXgaeRV0brKYJ6BHS7POoa7Ngo3TzzXH0BXtOiL9CiB8B7Z402VZ+KRrgPPqCTRXify7E/8KTHpfKL0UDuHA3/uYLX2FM8S7FV/iYbYA5wADFV3hhDVD0ecAzo0DDELsZfrljTHADcInin/ah8A8FvMZa5NO3DhhfoP04zcCGokXkRQvqjmZeT+a+HG3VBetwGx521WBrVY626oImoBt94f8Vfr9MunudrUCfkKepF5T6DqnJ7fAoqgJ0f9udwtZOg60dnm3VDUfQF3rI7SA58lzH59uR9xjfoCbd3Z5s1Q0LkZ/I5ZU4N6OGnFrG5ybgKyGPAWBuJd5NBlt11wuagcXAa0AX0I96ki4BZ4EPUNfFdYXt5v83tU29wGZ83iCkj1DDUjVSLxgALlZs9gOfAS8D84CrLDTkxjjU24j9uE121eGpWJ7TST8+zwAuCGn7gOti8dtS6O1H7eIL38csA06RvuIj4HdggiZv0/hs6gUHDLZWxeLeA5yoQftp4EGDlsxoQPnYBx3ESmGwklfcB5OmF6w02Kl+M7IB2OpR/xaN/sxoAPZ6EB4POzWFcOkFpjX/RYbfjGxEnmNqCW9r9GeC6+mSS9gWs+XSC0xr/uer4m3NUP8Wi/qriWUkd9v9wOOoe0EtqMnKpTvfH7Np0wvuQl7zf41aoQEssdD/IbAWNTlPrJRhDrAG9eG/JP2ZzQnjMU+4x1AVUY3J7SCF06hCD5HUC5pRlaz7+0CVpvHAGYPdk8C9FvXQDvyQoD+T1ZH04aMIOAhM0qQxuR2kmxMRI93Cpl6ww5BP9Zrf1BO/BK53qIvJwGFDfk875GVFM/I6/xhwrZDuqJDmaKUQ3wt/72V42ABzL5CCbs3vk8nAj4Ltc3g+a1ksGIoYOewM0W5Is6ISx3QjoiOWn9QLpBBf82eBSf9cQzpnXheM7DekkQ5B4m4HaWLbHsvPpRfk+TWUg4KGl3wa6RKMPCbEN912eDIWd40Q77AmX9de4CMksVZI94lFWmuk8X+WEP9FIf6vjHQ7zBHintXkm2YuyLoBJP3nLNJaI7lsdT4cUBPQA4wcXl7QxJ0o5C29E5B3L0higqP+VLg2QDW3oVwXF9DfDZ0k5C0VwOTDL6IBXPWnwnUI0jFF+H22kLepC+8S0hTRALem0H8F27XqSeH3eZbpQY3/OqRv+Zww5LUNNReMBqTr8yb9V7BtAGlGXy787sJDwu9dhjRnUAdBDZbhFYONpLRJPJxCvzNzkbtoLRuO+YZ8pQ1eGkxn0fENnwuLDPn61E8jsq/d5Iow0YrsD+rD71a+GTUm62ydRJ6fTExBPk3zrR+A9YKxCHXg7tIIrZjfolzvTfUwJmdcF8q3Y8sU4GNDfp3eVFcxDvlFugj1H4tsJuX5mD2h3RVbvmlB7gURyrFm808dFmE+R+4hG/0ALCX5QOMAsBq1Q2xh+EBjNerTkaa0g6gNXFYsttB/CHWgNBu4BrXXaQOeQPX0JP1LM9QPwKYEEbWEjVmLB17NUP/mHPRndii/l3wOtRuBNzPQ/1ZO+qFiaBP+rnVszFM8qhG2e9Svu1aTC0swT8xJoYdsx/wk7sP9+np1OEUOY34S41DLRpeC9FXSZLZacGAi6gy3Fzf9nXjQ77PbNKK+TL4MtTueiTqTjYA/UEu3T4F3UFfUBz3a9sHVqCVyB0r/NNSLhE3Uh/5AIBAIBAKBQCAQCNjwHwMiT+wpd99FAAAAAElFTkSuQmCC;" vertex="1" parent="UeALF8NDWmOJ1mfLhY5y-1">
          <mxGeometry x="640" y="97" width="96" height="96" as="geometry" />
        </mxCell>
        <mxCell id="UeALF8NDWmOJ1mfLhY5y-35" value="" style="shape=image;imageAspect=0;aspect=fixed;verticalLabelPosition=bottom;verticalAlign=top;image=data:image/png,iVBORw0KGgoAAAANSUhEUgAAAGAAAABgCAYAAADimHc4AAAABmJLR0QA/wD/AP+gvaeTAAALuklEQVR4nO2da3Ab1RXH/2e1tuXEhpCUWDIQXm0SAp/IAxxJRoQEQyw5zrQwwJTSTgOhBZopBAb6IA7QxzQBhrY8gqc8CjQzUMCJZIbQUIy9JgESvrQ05dE4ECPJMDw6ONixpHv6QbYry3etXb3W2Pv7pnv33vP3Obr3nr27ugZsbGxsbGxsbGxsbGxsSgpZLSAXogEvG7jsCIDDROhkxnZ3WOsotq5cmMoBGAMDuxVSrnGFOnuKoSlXFKsFlAoCVjKLN/oCy+us1pLOtAnAMN8QcIT6Ll5+utVCRphuAQDAc4SqtFqtYoRpGAAAjPOjAa/fahkAoFotoJC4w9poUvFJg88dL+PLCfgVAGfmtcS4DIDlmdGUCkA6x+/qigK4J9roJRC2ZtYzod4CWeOY8lOQg9WndKpOLKkQHaZ8AEiN6/2Npu8lisGUD0CCcYVO1UclFaLDlF0DPmnwuRMqXwHGXfIr6NXSKpIzpQKQvkWRyDLDsKDtRRdkgCk/Bemwq/aFzk6rRQDTMgD0qcL4sdUqRphuAfiESARq2rWDVgsZYdoEgEAvQVWXuULde63Wks6UWoQz6AfjQxB1sqDt7kky52cypQKQvhf0dWHaTEGTFTsAFmMHwGLsAFiMHQAbGxub6UvJblz6mjyrkgKXEsiH1OPAmWbafx1vsoxQ9Dvh3tXe+Q4HtwpB9VPSg3lS1ABEVtfXkyLawHRcMe18nSlaGtq72jufFNEGoBDOP1qAPiYlRQuAw4GHUBjng8FPFKKfyUhRAtDX5FkFxvkF6o7JodxboL4mHUVZA1LZjpQhgH6pKuLJ43d2R0YK2e9XYzPj74HoFEmbdveOrn8VQlc04G0BsCnbdaXMuIoSgOFUczyM293tXb/LLO6rin8bkDofIBr3WmEuGHV+qSlWFnSC1FiC/iwrZ9CN0l4Y+9zhrrzf35mszgcmwU+Uoo2e80H0d6t1pFPKKcj63VBSNlotwUosDUAkWLcQ4Ius1GA1lj6UJ3bcjMkwCgEQ4WFXSFtfcrulNjhCX9M5NUKUHYLk1yuWQIgTlAWl/hmrZd++pCjfgMnifABglAHi1lKbtWQExC68cCaXD3wA8JysFxfgmxkNeEMAAqWwZRZrRkD5V+sMOR/I+5sZC3ovhxHnF8BWLpR8BLDfr8aqEu8COFVSnYA8MRiCqi5wt3UcMmOrp9k/y5lIHADgMtyIEIdDnW/WVq6UfASkth2kzgeIrgYhLqkpp0TiZ2ZtVcYTv4We8wkPSm0xynKxlSslDwAT/VRegX3uUNdjzPy4vB2+HwvWywMnIbbaew4TrtapftsVGdhAjMcKYSsfShqAaMDrB+McuRLeAgAQfBeAoXH1JuZn9vtVoWAb5H+fEAqtp/3744Kgb4vFbUZs5UvB1gBevLisr7ayQTBWEWgpwKeDcBwYSRA+B/MBMLlAWCRp3uPqV+dTR0cCACIBTyuB1knUGpqfY0Hvrcz4jayOGNtc7dq1o9cGvA8zpCNFADgKggrG5wAOgkljhXe4ne499MwzyYk0GCXvALx38cUVVcqX14NwC4C5OYkgbHCFtN+PfI42+09BMvFu6lufcS3Q6gpr1+j11dfoPU0Q/gFghqQ6NsRYdHK79vmorTW+RUjy2yYlfwzQ1sF+xx9O7egYNNl2DHlNQZGgr7nK8eU7w0cB5OZ84AvFqT6SXuZu6zg00fwcbfbLnx0AEIQHIHc+iHBjuvNjAd8FELwzB9lzAf6dsyrxTiTgXZtD+1FyCgADFA14W4j5OQAn5yOAgWOTA4mNnDEaWVV/bTZLiTX6LgPQoGNqlyukbR/RHwt472Tw38DI5+ygeQQ8Gw367sjUbxTTjYbFPw7gylwM6gphbKtp135EaUcI6M7PkrUgS84/oDDOqmnXDnILlOg+zzbpGpMHDPzFHda+m67fCKZHQCzg3YQCOx8AmLA+GvSM+VW7mVEwUc5P4DtHfhnZt8+7udDOT9nAFbGgb7PZdqYCEAn6mgHcnkXJi8T4YVJgAQ3NqALoFqP9E9Nt0UZf48hno2tBX2P98gly/n/WRAe3AkCs0dPEwM+zyHiVGevhoDNVhY+hoRlVTMkzGHQNA7snbMn8C7NrguEpqMfvdzqrEv+G/px/QGFlXU1752ujeibedtDjQxqascj10ktHgOwZUU104LqYu/ItAGdJ+hIKK76a9s7XhvW/C+AkHbsHWeC62he0FycSFw36zmPmVgK+pad/sF9dYDQ7MjwCnDMT10Hf+S+XJ+PnpjsfyLLtALyjUz4PFV/dMPIh2yiI1VbeB7nzQYzWEU3OquQN0Hf+fioTddmcDwDuUNeryXjyXABdevqd1fHrs/UzqtHIRbx4cVnMXdkLeap5oGLQWTd79+7/ZlZEA743AF4qMftmIp64SC1z7AEwX9JnxBUdOIX2748DE4+CCRiX8xeSww11s9Uy9XWAvymp7nMt0WqpBSJbP4ZGQF9tZQN08nyFlXVS5wd958mdDxDE3Sft2vMZmK+V1QOo/fgE5+ihehONAj0yc/5Ck9Iv9G4IayJv+QydT2ooAAy+UFpBeDFz2vl/I9Z726Gnpr/sWQBwt3e/orewJQU1pn/WzYjkjOb8xcTd3v0KgJdldYoQa4z0YeyhPCtLpOkt42nZ5ZFg3UIwVsvqiOnekT2f4ZKnAV457jrg7PTP7raOQ7GA9zGdfZtMGnI53lhGtneEmPE0ES7ILCem5Ub6N7gIs/RuMSnQLSsndvxAp+/PlBmOR8denJAvZoRxc6vJUVAalKT0DAqW6Jc2N2hmlqywfKYakZW7lmi3EdCUOb0Q48G5z3T0p5eVkSI/u40xO7Mol7Wg2KjOil6dKqnPMinK8wBqgXCFtVBtWFvFjCUAngDwlSNB948TEE+Y2g7R3cO3CEf/QF4+NNr4C1nh0JFEbbaGte3afndY+16ybGje8GGqYxgsU91mbNaGtA+JJs8oOKpUSF9Eho7+TAwGgP4jK1UJXmPtgROff+NTac9CkZ5gS4z39foSqeOIJ8cooOR50uIJ9Kdj8NVEoQE0Lq9lwqUAHpE0MIwCfEeWrjCxPL1FahQAqDBqI9ro2wIanxYz8FptWPMY7UcGAZfIyifSn46hESAUZYdOVcNHTb6c/4BIo8end4+hsKMt137HQdwuLQaW9zV5VuXabSxYvwKgFbI6o/oNBaD27K49AGLSDgS3frZy5bFG+kmnp9k/i4j0zvGPzV3aWbCz3VzRgW4AfbI6Ieih3rXLjL0klkbv2mVzGOJhnWrD+g0FgFogGNiiU33GUefAc2aC0NPsn+VMJp4DsEBWz8AWI/soRkntKdHdOtWnOeIVocMNdePSXj161y6b44iXt+k+TWNsNarfcAp1JFl9P5h13kagFUedg3sjQW/WRTnS6PE5E4m9E/yKsudIsnpcupovNFT5AHRGAcB1apn6upF/6hAL1q9wJMpfB3QSEOZD/aL6j4Z1Gb0wZdy3hpmfz9JuFxH9VSChKUerDwOAqPjyJAWqF4xLdPeVUjABa1xhLWRGl1FiQW+AGTsxkX7CKyTwZNLB3cSDh1VntZIcSs5jIXzEuFRvzh+GiWitK9Slt2ZKzJkkmnok2WK2nSGINrlDXXcUpe9hYo2ee3Tfzsufze6wZso3pu/iXGHtDqTubAvNE65Q151F6HcMNUu7NwJ4NOuFJiHQU66wVtxnwilDYFdYuwqpUVCIHUcG0SZXWLvK7BsFuUAtEK4l2joG7kOh9AOba8JdV+aiP68344Yfct+n8wv37DAfIqKfFGvOz0Y04FkN0J9g5vX1sXxARBvMzPmZ5LWR5Grv3tkvjlnIwE3QuU/QIcbATf3imIVWOR8A3OHuF1SF54P4ZgDSnV0dYmBs7E9WL8jH+UAhX85tgfLxm/XnCko2M8hDwOlInZbCAL4gxvtM6FZY2TF3aefeQub5heDtS84snzMw28fEq8DwAKgFUIPUds2k129jY2NjY2NjY2NjY2NjkP8BcFhRC3OAxfwAAAAASUVORK5CYII=;" vertex="1" parent="UeALF8NDWmOJ1mfLhY5y-1">
          <mxGeometry x="610" y="500" width="96" height="96" as="geometry" />
        </mxCell>
        <mxCell id="UeALF8NDWmOJ1mfLhY5y-36" value="" style="shape=image;imageAspect=0;aspect=fixed;verticalLabelPosition=bottom;verticalAlign=top;image=data:image/png,iVBORw0KGgoAAAANSUhEUgAAAGAAAABgCAYAAADimHc4AAAABmJLR0QA/wD/AP+gvaeTAAAL3ElEQVR4nO2de5BT1R3Hv7+bZJfHFlA6glRQ2WR5Oa1DkgVEFFCKow7qWBl1qq1T3GRBZXTU0T5k8dF2BHW0SJJdFZ9lhlaLMs5oq0WtyCNZOq3FdTdZFsXi2o7gjrw2yT2//rGbbUjOTe7N6y7L/fyxMznPb84vv3N+99xz7wIWFhYWFhYWFhYWFhYWFYXMFlAInmCUdRQ7AmA/wB+AaWOk0fVeuXUVwlA2wIkwvaPYkw27bp3aVQZJBaOYLaBiEF8qVNuu+mB0jtlS0jl1DNDHdwWwxR2K1potJMWpZgAAGEuMFrNFpDgVDQAACzyB6HyzRQCA3WwBpSTidw0EFe7QJ2eCHTcQ8AiAYVmFFboegOmR0ZAyQDqtvulfAnjcHYoRMa/NLsEXVVyUhCE/BSlJ2yvSDMZZFZYiZcgbICl6tb6j8WuJMjDkDWB32G+UZhD+XWEpUobsGuAOfXImUHUjMz8sLcD0foUlSRlSBjhhi4IH/kghiI3lV5SfIT8FySDg7bC/7gOzdQCnpgG+huDlZotIMaSmoLww/isYS3Yvr9trtpQUp5IH/NmOZP3u5a4dZgtJZyh7wGEGPifQBwSxcbDM+ZkMKQOk7wWdLJxKU9CgxDKAyVgGMBnLACZjGcDCwsLi1KViFy6eYMciYlrKRPMAPgvASCP1T8aLLD2U/Uq4vrmzTgjRAuAiJmCQ3AkcNJTVAN5gx0UsxGYAp5Wzn5OZsoWh9c2ddQBt5tIMfm8J2hiUlM0DhBBBlOiXT4yXStHOYKQsHuAJdiwCsKBEzbFCeKJEbQ06yuIBfdGONCsO5l+pSfHy32+feiCVOL9pq/3b8ROjBD4nswIDb+70uz4phS5PINoEwqp85SoZcZXFAP2hZnY68EBrY92jmelHxk+8Vjb4AKAokBwrNI7ewa80ZVqE+XvSZEq8KC0NvkujoUi4wVX0+Z3BOvjAIHhEyR2KLSDmv5qtI51KTkGm74YSi7vN1mAmphrAHWqfCtBlZmowG1NvyhOUezAIvLAPbo7463yV7tW0NWBWy95xqqrug+zpFXNIKDZ1SqUfYzXt15dU1ZUYPIMPAA6hKvdVulNTPOD7L/5jZNXREZ8BGKujeNG/THcwuoWAKyvRl1FM8YDqo8OXQd/gA0X+Mj3Bjht0Dn7RfRVCxT1gftNW++HxZ3UAOFeSnYQ8MIjbOTllR+O0fUb6On9D1xh7b7INwHgD1RJ2TtYZ7atQKu4BR8ZPvBbywQcx3wogIcmqSpD950b7ssfV30Jj8IkR0OjLUUhfhVJxAzD4To2sSLix7nlivCDLJOCn9S2fSg0nwx3qmIU+g8rYI5SelQw8X4q+iqGiBuh/On2WLI8YawAgqdoeBhCXFNE9P89v2moHUwjy7yfA5Gv1eRIgRbMvVbXdr6evYinZGuAORRwsRi22QVnExF4CavvvhqkAHSJwmwDGEzBdUr2rpvuLuveaFiQBwBuItjBhmaScrvnZHYreR4zfSDOJQhGf0z9QNhhtJkDmKQJ9d+LsBBwCsFeAPwTZXp982uTtf1hKai4NeinaAM6notWjq+k2hfleBs4opA0mXtnqq3sq9Xl2oO2cJNk7ADiyygItrX5Xg1Zb3vUdk1mhjwGMkGR394qq6R8vP/tQKmFWMDpdBfYY0UvAf5h4bU2V43fv3XLucSN1MylqCnKHYlePqUY7Ma8tdPABfHM8mXguPWFH47R9uebn2YE26b0DAIBC6yEffAB8V/rge4Odl6jAG0YFM3AGmB493Jtsrw/ErjFaP53CDMBMnkC0iZhfA+PsYgQAGD1cqbobfOI9NAcnfw2DUYonELuegcWyPALejvjrNqb0e4OxhxjiLwCKeXfQJEH8qjcQezBTv16MV2ImT3PsBTBuKqRDbSUUijTUNoJo4FZajvk5ay3IE/MfI8HnhZfX7UUTK95xsZDGGlO4fMbvw37nj9P168GwB3iCsVUlH3wAYPZ5grETnmo34gU5Y37goXD/k5He8Z2rSz34AMCEG73BztVG6xkygDsUuxqEB/IUewuMnymKMiU+4mgNiO/V3QHhfneo44rUR71rgbc5dkGOmP9fgnrWAoBnfXQJg3+RUwPjfSLy2YAZ1Q51VHzE0RomMY2YGsD0Ts6qxL80uibonoLmb+gadjie/FRzzie0EdGycIPzo4E6ubcdtPg8PuLo9H/e/IMjQP6ICNSzgnj0bgDnSdoSpNC8cIPzo/kbuoYd7k12AJio0e9eAq0I+51v5RLnbY5eLARaCHBp6a+ptk/RGx3p9oBv4+oK7QWX37X1Ynb64AO5tx0AatfoapLj2IjbUx/yeYEiRj8J+eADRC0pTYfjiduhMfhEaI0zzck3+AAQbnC9X2WPzybQ37T0H+lVb8vXzkDfegq5QxGHwqO/kIaahDaGMqfVV9uTmeUJdOwCkTerDnPY4UhclkhWbQdQl52PA6z0nNPq8ySA3F6Qg6yYv5TMeWbP6Qm1aicYTkn2V5Fu5wQ0kcjXji4PYDFqsVacT0TLZIPvbY5eLB18AETKY9uXzTjIRH5ZPggTiEcNvFQvlxfkUH1XuQYfALYvm3GQQVoXhOM84zp1vZ9UlwEUwg81st7KnHZSCAGt0w5dI7v3vwoArT7nVq2FjaFckf45R0SUxQkxfxlp9Tm3Avyuhoir9LSh86Y8eeR98CZZujvUPpUYl8vyGPREas+nrw1sYuDSzHIKMDP9847GafvcwejzGtcFGX1gcUGvN5aQ74wQkbKJmS+RqLhAT/u6PIA0rhZJsW2Tl7fdotH2weNq74b0BKGo0sWMkT23GvGCSiGgar2DQrY2ZKFvDQDGyNKPJI4fkKVHvqy9n4AlWdMLcWDPihmH05OG2Vnj3W18emZKYWtBeTmeTH6hkSUds0zKcz+giUTY79oSaXQuEoI8ILwE4Cgj+XRm0eQRm7HtEO09fFOoUauKGkO9U9A3svSRjmET8tXdvdzZGvG5blaSyUn9L1M9AdWunqlRVdpnq6/2c4AHjRckbBoHkTX0Z6J3CuqUpQtVXKinPgDsum3a17J0IrvWG2xjmnrI9ggGiReQDRdrZGnqT0dvFPQhwFlxLRGWAnhOUkE3TPwjjT6l4S2Q8gJU6+3DHexYQ6DssJjxUaTRNVdvOzIU0HXycEtb/4n19cB4XZ6MxZ5ArOAvMHN9+zxAfo1BCjYX2m5WW0xvyjNwQf/jVAUxMxBbyMBCadM69esyQOSr2u0AuuUtcIs71DlaTzvpnL+ha4yi2LTe498dPlBbsne7sdKzDcBX8lwK1q9r03tIbID6dW1jFeJmjWzd+vV5QBMJRt+phSwY0xQWrxkxQv/Nk9cAniJvEmv07KPope8EBD+mkT1Z2O1b5jyzJyvs1aJ+XdtYYbdthsb1EROt1atfdwjVE8fTDJKeRmBgIbHY4Q515l2UZ65vn2fvVXdA+ynKrp44ssLVYokPP7Yeml6AOQm1aqeef+owMxBbKOz2nQBJvyuD9vX08jq9ugzF4J5g9CoAf8pVj4C3BeGPgPgwMfz4fgBwHBs2EVAuJMZ10Jjz+2ECrgr7XVuM6NLLzEDHlQrRG8j9vbeC8TJY3ca2UfuPJw8pNbaqSSrzPCJaqjXn98MAron4XdI1U4bhe8KeUHQVGE1G6+kUsyrsdz1YjrZTeELRx8HQOp1XHIzVkUaXobExfBUXaXA+2H9lW1oIL4V9zodK3m4GkS+ddwPYkLegQRh4JeJ3lveeMACAiCMNzp+A0ITSvPqECVjV16axEwUF0UQi0u1cxqAnUSL9YKxu9TlvKkR/USfjPOujS1ihJ7Uess4Hg/Yp4DvKNefnwxPsvBwQz8LY8fX/Q/gMjJVG5vzsJorE+VS0enQVVhBwD/R/kW4G1vTE8XTsDpepb0KZ++yn34kn7D5mvhOEvHtb/XQz0dqeXl5XrP7SPaDRxIp3QudsFrgazHNBqEXf4VxG38ZUDETbiPB6+EDtjlLG+aVgxqY9VSMODpsHiEUMngvQBADj0LddM+j1W1hYWFhYWFhYWFhYWOjkf0A2bcS0StwAAAAAAElFTkSuQmCC;" vertex="1" parent="UeALF8NDWmOJ1mfLhY5y-1">
          <mxGeometry x="460" y="500" width="96" height="96" as="geometry" />
        </mxCell>
      </root>
    </mxGraphModel>
  </diagram>
  <diagram id="L0_kRQIZ6UbFrtKrG6fD" name="Page-3">
    <mxGraphModel dx="1038" dy="519" grid="1" gridSize="10" guides="1" tooltips="1" connect="1" arrows="1" fold="1" page="1" pageScale="1" pageWidth="850" pageHeight="1100" math="0" shadow="0">
      <root>
        <mxCell id="W9pRoCmTD-GcIU4caQcl-0" />
        <mxCell id="W9pRoCmTD-GcIU4caQcl-1" parent="W9pRoCmTD-GcIU4caQcl-0" />
        <mxCell id="W9pRoCmTD-GcIU4caQcl-2" value="vehicle" style="rounded=0;whiteSpace=wrap;html=1;" vertex="1" parent="W9pRoCmTD-GcIU4caQcl-1">
          <mxGeometry x="190" y="140" width="120" height="60" as="geometry" />
        </mxCell>
        <mxCell id="W9pRoCmTD-GcIU4caQcl-3" value="color" style="rounded=0;whiteSpace=wrap;html=1;" vertex="1" parent="W9pRoCmTD-GcIU4caQcl-1">
          <mxGeometry x="480" y="140" width="120" height="60" as="geometry" />
        </mxCell>
        <mxCell id="W9pRoCmTD-GcIU4caQcl-5" value="MotorBike" style="rounded=0;whiteSpace=wrap;html=1;" vertex="1" parent="W9pRoCmTD-GcIU4caQcl-1">
          <mxGeometry x="120" y="280" width="120" height="60" as="geometry" />
        </mxCell>
        <mxCell id="W9pRoCmTD-GcIU4caQcl-6" value="BicycleBike" style="rounded=0;whiteSpace=wrap;html=1;" vertex="1" parent="W9pRoCmTD-GcIU4caQcl-1">
          <mxGeometry x="280" y="280" width="120" height="60" as="geometry" />
        </mxCell>
        <mxCell id="W9pRoCmTD-GcIU4caQcl-7" value="&lt;div&gt;Red&lt;/div&gt;" style="rounded=0;whiteSpace=wrap;html=1;" vertex="1" parent="W9pRoCmTD-GcIU4caQcl-1">
          <mxGeometry x="440" y="280" width="120" height="60" as="geometry" />
        </mxCell>
        <mxCell id="W9pRoCmTD-GcIU4caQcl-8" value="Blue" style="rounded=0;whiteSpace=wrap;html=1;" vertex="1" parent="W9pRoCmTD-GcIU4caQcl-1">
          <mxGeometry x="600" y="280" width="120" height="60" as="geometry" />
        </mxCell>
        <mxCell id="W9pRoCmTD-GcIU4caQcl-9" value="Extends" style="endArrow=block;endSize=16;endFill=0;html=1;entryX=0;entryY=1;entryDx=0;entryDy=0;exitX=0.5;exitY=0;exitDx=0;exitDy=0;" edge="1" parent="W9pRoCmTD-GcIU4caQcl-1" source="W9pRoCmTD-GcIU4caQcl-5" target="W9pRoCmTD-GcIU4caQcl-2">
          <mxGeometry width="160" relative="1" as="geometry">
            <mxPoint y="290" as="sourcePoint" />
            <mxPoint x="200" y="190" as="targetPoint" />
          </mxGeometry>
        </mxCell>
        <mxCell id="W9pRoCmTD-GcIU4caQcl-10" value="Extends" style="endArrow=block;endSize=16;endFill=0;html=1;entryX=1;entryY=1;entryDx=0;entryDy=0;exitX=0.5;exitY=0;exitDx=0;exitDy=0;" edge="1" parent="W9pRoCmTD-GcIU4caQcl-1" source="W9pRoCmTD-GcIU4caQcl-6" target="W9pRoCmTD-GcIU4caQcl-2">
          <mxGeometry width="160" relative="1" as="geometry">
            <mxPoint x="335" y="270" as="sourcePoint" />
            <mxPoint x="345" y="190" as="targetPoint" />
          </mxGeometry>
        </mxCell>
        <mxCell id="W9pRoCmTD-GcIU4caQcl-12" value="Extends" style="endArrow=block;endSize=16;endFill=0;html=1;entryX=0;entryY=1;entryDx=0;entryDy=0;exitX=0.5;exitY=0;exitDx=0;exitDy=0;" edge="1" parent="W9pRoCmTD-GcIU4caQcl-1" source="W9pRoCmTD-GcIU4caQcl-7" target="W9pRoCmTD-GcIU4caQcl-3">
          <mxGeometry width="160" relative="1" as="geometry">
            <mxPoint x="430" y="260" as="sourcePoint" />
            <mxPoint x="400" y="180" as="targetPoint" />
          </mxGeometry>
        </mxCell>
        <mxCell id="W9pRoCmTD-GcIU4caQcl-13" value="Extends" style="endArrow=block;endSize=16;endFill=0;html=1;exitX=0.5;exitY=0;exitDx=0;exitDy=0;entryX=1;entryY=1;entryDx=0;entryDy=0;" edge="1" parent="W9pRoCmTD-GcIU4caQcl-1" source="W9pRoCmTD-GcIU4caQcl-8" target="W9pRoCmTD-GcIU4caQcl-3">
          <mxGeometry width="160" relative="1" as="geometry">
            <mxPoint x="610" y="260" as="sourcePoint" />
            <mxPoint x="700" y="190" as="targetPoint" />
          </mxGeometry>
        </mxCell>
        <mxCell id="cmQoSH8ij_3PPQBUPJeb-0" value="" style="shape=image;imageAspect=0;aspect=fixed;verticalLabelPosition=bottom;verticalAlign=top;image=data:image/png,iVBORw0KGgoAAAANSUhEUgAAAGAAAABgCAYAAADimHc4AAAABmJLR0QA/wD/AP+gvaeTAAAGq0lEQVR4nO2dy29VRRzHP62tEAtYIVFhoQgJYLcufPAoYpoYRcBEebhSA7hSEuoDN0BAFj5i0AXySFwQ/QMMMWBEoqgV0YWJiqjQAkkp9R0REE17XMwtvZ7Ob87MuXPO6T2dTzKb25n5fWfmzOs3c04hEAgEAoFAIBAIBAIBCyKL8BfwHbALWFiMzPJi0wDx8D5wSxFiy0iaBoiAn4E7C9BbOtI2QAT8AszMX3K5qKUBIuBQ/pLLRa0NEDFKJubGogV4pqEqTAM6gb+FuCvzElVGpKdaR6cQ91j2MsuLSwPcKMT9M3uZyZRtCNIhlVFqsFwZCw3wiPB7b64qSobNEDSV4UlYF/eNvMSWER/L0AW5qy4RtVb+gfwll4taXREz8pdcLtJW/k/AHQXoLR1pKv89YHoRYsuITYWfB75FrXZG7YTbVLQAzzQULcCVsbARG9WEBiiY0AAFExqgYEIDBAKBQCAPOoA9wHHUtUFXV0IgJbOAj6jdhRxIwQLgN/wcoAQcmYW/ypfu9gQMHMJP5UeouSPgQAf+Kn8QaMtXfv2zB31lXgaeRV0brKYJ6BHS7POoa7Ngo3TzzXH0BXtOiL9CiB8B7Z402VZ+KRrgPPqCTRXify7E/8KTHpfKL0UDuHA3/uYLX2FM8S7FV/iYbYA5wADFV3hhDVD0ecAzo0DDELsZfrljTHADcInin/ah8A8FvMZa5NO3DhhfoP04zcCGokXkRQvqjmZeT+a+HG3VBetwGx521WBrVY626oImoBt94f8Vfr9MunudrUCfkKepF5T6DqnJ7fAoqgJ0f9udwtZOg60dnm3VDUfQF3rI7SA58lzH59uR9xjfoCbd3Z5s1Q0LkZ/I5ZU4N6OGnFrG5ybgKyGPAWBuJd5NBlt11wuagcXAa0AX0I96ki4BZ4EPUNfFdYXt5v83tU29wGZ83iCkj1DDUjVSLxgALlZs9gOfAS8D84CrLDTkxjjU24j9uE121eGpWJ7TST8+zwAuCGn7gOti8dtS6O1H7eIL38csA06RvuIj4HdggiZv0/hs6gUHDLZWxeLeA5yoQftp4EGDlsxoQPnYBx3ESmGwklfcB5OmF6w02Kl+M7IB2OpR/xaN/sxoAPZ6EB4POzWFcOkFpjX/RYbfjGxEnmNqCW9r9GeC6+mSS9gWs+XSC0xr/uer4m3NUP8Wi/qriWUkd9v9wOOoe0EtqMnKpTvfH7Np0wvuQl7zf41aoQEssdD/IbAWNTlPrJRhDrAG9eG/JP2ZzQnjMU+4x1AVUY3J7SCF06hCD5HUC5pRlaz7+0CVpvHAGYPdk8C9FvXQDvyQoD+T1ZH04aMIOAhM0qQxuR2kmxMRI93Cpl6ww5BP9Zrf1BO/BK53qIvJwGFDfk875GVFM/I6/xhwrZDuqJDmaKUQ3wt/72V42ABzL5CCbs3vk8nAj4Ltc3g+a1ksGIoYOewM0W5Is6ISx3QjoiOWn9QLpBBf82eBSf9cQzpnXheM7DekkQ5B4m4HaWLbHsvPpRfk+TWUg4KGl3wa6RKMPCbEN912eDIWd40Q77AmX9de4CMksVZI94lFWmuk8X+WEP9FIf6vjHQ7zBHintXkm2YuyLoBJP3nLNJaI7lsdT4cUBPQA4wcXl7QxJ0o5C29E5B3L0higqP+VLg2QDW3oVwXF9DfDZ0k5C0VwOTDL6IBXPWnwnUI0jFF+H22kLepC+8S0hTRALem0H8F27XqSeH3eZbpQY3/OqRv+Zww5LUNNReMBqTr8yb9V7BtAGlGXy787sJDwu9dhjRnUAdBDZbhFYONpLRJPJxCvzNzkbtoLRuO+YZ8pQ1eGkxn0fENnwuLDPn61E8jsq/d5Iow0YrsD+rD71a+GTUm62ydRJ6fTExBPk3zrR+A9YKxCHXg7tIIrZjfolzvTfUwJmdcF8q3Y8sU4GNDfp3eVFcxDvlFugj1H4tsJuX5mD2h3RVbvmlB7gURyrFm808dFmE+R+4hG/0ALCX5QOMAsBq1Q2xh+EBjNerTkaa0g6gNXFYsttB/CHWgNBu4BrXXaQOeQPX0JP1LM9QPwKYEEbWEjVmLB17NUP/mHPRndii/l3wOtRuBNzPQ/1ZO+qFiaBP+rnVszFM8qhG2e9Svu1aTC0swT8xJoYdsx/wk7sP9+np1OEUOY34S41DLRpeC9FXSZLZacGAi6gy3Fzf9nXjQ77PbNKK+TL4MtTueiTqTjYA/UEu3T4F3UFfUBz3a9sHVqCVyB0r/NNSLhE3Uh/5AIBAIBAKBQCAQCNjwHwMiT+wpd99FAAAAAElFTkSuQmCC;" vertex="1" parent="W9pRoCmTD-GcIU4caQcl-1">
          <mxGeometry x="292" y="360" width="96" height="96" as="geometry" />
        </mxCell>
        <mxCell id="Av_gbn9Ljsv2AQnjlWEh-0" value="" style="shape=mxgraph.signs.sports.dirt_bike;html=1;pointerEvents=1;fillColor=#000000;strokeColor=none;verticalLabelPosition=bottom;verticalAlign=top;align=center;" vertex="1" parent="W9pRoCmTD-GcIU4caQcl-1">
          <mxGeometry x="145" y="390" width="70" height="61.5" as="geometry" />
        </mxCell>
        <mxCell id="FDNf-L-yKe2nc7nwdHPh-0" value="" style="rounded=0;whiteSpace=wrap;html=1;fillColor=#f8cecc;strokeColor=#b85450;" vertex="1" parent="W9pRoCmTD-GcIU4caQcl-1">
          <mxGeometry x="440" y="391.5" width="120" height="60" as="geometry" />
        </mxCell>
        <mxCell id="rPOYQgXXT06hAAxwV0K4-0" value="" style="rounded=0;whiteSpace=wrap;html=1;fillColor=#dae8fc;strokeColor=#6c8ebf;" vertex="1" parent="W9pRoCmTD-GcIU4caQcl-1">
          <mxGeometry x="610" y="391.5" width="120" height="60" as="geometry" />
        </mxCell>
        <mxCell id="rPOYQgXXT06hAAxwV0K4-1" value="" style="endArrow=diamondThin;endFill=0;endSize=24;html=1;entryX=1;entryY=0.5;entryDx=0;entryDy=0;exitX=0;exitY=0.5;exitDx=0;exitDy=0;" edge="1" parent="W9pRoCmTD-GcIU4caQcl-1" source="W9pRoCmTD-GcIU4caQcl-3" target="W9pRoCmTD-GcIU4caQcl-2">
          <mxGeometry width="160" relative="1" as="geometry">
            <mxPoint x="360" y="140" as="sourcePoint" />
            <mxPoint x="520" y="140" as="targetPoint" />
          </mxGeometry>
        </mxCell>
      </root>
    </mxGraphModel>
  </diagram>
</mxfile>
